<?xml version="1.0" standalone="no"?>
<!DOCTYPE svg PUBLIC "-//W3C//DTD SVG 20010904//EN"
 "http://www.w3.org/TR/2001/REC-SVG-20010904/DTD/svg10.dtd">
<svg version="1.0" xmlns="http://www.w3.org/2000/svg"
 width="512.000000pt" height="512.000000pt" viewBox="0 0 512.000000 512.000000"
 preserveAspectRatio="xMidYMid meet">
<metadata>
Created by potrace 1.14, written by Peter Selinger 2001-2017
</metadata>
<g transform="translate(0.000000,512.000000) scale(0.100000,-0.100000)"
fill="#000000" stroke="none">
<path d="M1747 5114 c-1 -1 -58 -5 -127 -9 -262 -12 -351 -18 -460 -30 -19 -2
-73 -7 -120 -10 -47 -4 -107 -11 -133 -16 -26 -5 -51 -8 -55 -7 -4 2 -40 -4
-79 -11 l-73 -14 0 -2474 0 -2473 23 -1 c24 -2 42 -4 102 -12 22 -4 72 -9 110
-12 39 -3 88 -8 110 -10 41 -5 118 -10 325 -22 164 -9 874 -9 1005 1 163 11
312 25 347 31 11 3 46 7 77 10 31 4 114 18 185 32 71 13 137 26 147 28 119 23
345 99 475 160 357 167 626 462 742 810 30 90 40 128 48 175 19 120 21 163 19
290 -2 80 -6 156 -9 170 -4 14 -9 41 -12 60 -6 42 -41 163 -59 205 -85 201
-181 333 -335 463 -156 132 -266 191 -547 292 -67 24 -76 35 -40 46 49 15 267
129 347 182 47 31 126 97 176 147 168 167 251 329 300 585 12 65 11 249 -3
333 -52 330 -227 584 -533 773 -262 162 -564 254 -950 290 -41 4 -93 9 -115
11 -44 4 -884 11 -888 7z m743 -798 c203 -21 378 -91 486 -194 49 -48 114
-142 114 -166 0 -8 4 -17 8 -20 14 -9 34 -114 37 -195 5 -167 -46 -302 -160
-417 -82 -83 -171 -136 -307 -181 -88 -29 -135 -40 -268 -59 -84 -12 -600 -12
-601 0 -1 6 -2 280 -3 609 -2 593 -1 598 19 602 39 8 91 14 195 21 58 3 106 7
107 8 6 5 312 -2 373 -8z m-95 -2030 c238 -21 444 -85 586 -183 127 -88 216
-216 254 -368 19 -73 25 -224 12 -306 -27 -172 -131 -341 -272 -439 -115 -79
-295 -142 -480 -167 -62 -8 -589 -10 -660 -2 l-40 4 -1 730 c0 402 3 732 7
735 11 7 500 4 594 -4z"/>
</g>
</svg>
